<?xml version="1.0" encoding="UTF-8"?>
<!-- Generator: Adobe Illustrator 13.0.2, SVG Export Plug-In . SVG Version: 6.00 Build 14948)  -->
<!DOCTYPE svg PUBLIC "-//W3C//DTD SVG 1.1//EN" "http://www.w3.org/Graphics/SVG/1.1/DTD/svg11.dtd">
<svg version="1.1" id="Layer_1" xmlns="http://www.w3.org/2000/svg" xmlns:xlink="http://www.w3.org/1999/xlink" x="0px" y="0px" width="87.697px" height="220.313px" viewBox="0 0 87.697 220.313" enable-background="new 0 0 87.697 220.313" xml:space="preserve">
<path d="M87.695,179.297c0,27.344-13.77,41.016-41.309,41.016c-27.67,0-41.504-13.672-41.504-41.016v-9.766h24.414v9.766  c0,21.809,5.696,32.715,17.09,32.715c11.393,0,17.09-10.906,17.09-32.715c0-13.022-3.891-22.593-11.67-28.711  c-7.78-6.119-13.493-15.754-17.139-28.906l-3.809,2.051C12.044,122.104,1.758,112.144,0,93.848  c1.758-17.642,12.044-27.701,30.859-30.175l3.32,0.781V0h24.121v74.707c3.45,2.93,5.176,6.641,5.176,11.133h15.918v15.43  l-15.918-0.098c0,4.558-1.791,8.463-5.371,11.719v9.375c-0.977,11.002,3.743,19.775,14.16,26.318  C82.682,155.127,87.825,165.364,87.695,179.297z M20.508,93.653c0.846,10.417,5.794,15.625,14.844,15.625  c7.617-1.041,11.849-6.25,12.695-15.625C47.2,85.19,43.229,80.274,36.133,78.906C26.562,79.819,21.354,84.733,20.508,93.653z"/>
</svg>