<?xml version="1.0" encoding="UTF-8"?>
<!-- Generator: Adobe Illustrator 13.0.2, SVG Export Plug-In . SVG Version: 6.00 Build 14948)  -->
<!DOCTYPE svg PUBLIC "-//W3C//DTD SVG 1.1//EN" "http://www.w3.org/Graphics/SVG/1.1/DTD/svg11.dtd">
<svg version="1.1" id="Layer_1" xmlns="http://www.w3.org/2000/svg" xmlns:xlink="http://www.w3.org/1999/xlink" x="0px" y="0px" width="83.008px" height="150.391px" viewBox="0 0 83.008 150.391" enable-background="new 0 0 83.008 150.391" xml:space="preserve">
<path d="M83.008,108.399c-0.065,27.994-12.109,41.992-36.133,41.992v-8.203c7.812-0.064,11.719-11.328,11.719-33.789  c0-17.578-5.697-26.367-17.09-26.367c-11.328,0-16.992,1.986-16.992,5.957v62.402H0V42.969C0,14.323,12.337,0,37.012,0  c24.739,0,37.109,10.026,37.109,30.078C73.926,49.741,57.389,59.57,24.512,59.57v18.262c2.474-2.083,8.138-3.125,16.992-3.125  C69.173,74.707,83.008,85.938,83.008,108.399z M50.684,30.078c0.13-14.517-4.362-21.777-13.477-21.777  c-8.594,0-12.858,8.92-12.793,26.758l0.098,17.09C42.74,51.758,51.465,44.402,50.684,30.078z"/>
</svg>