<?xml version="1.0" encoding="UTF-8"?>
<!-- Generator: Adobe Illustrator 13.0.2, SVG Export Plug-In . SVG Version: 6.00 Build 14948)  -->
<!DOCTYPE svg PUBLIC "-//W3C//DTD SVG 1.1//EN" "http://www.w3.org/Graphics/SVG/1.1/DTD/svg11.dtd">
<svg version="1.1" id="Layer_1" xmlns="http://www.w3.org/2000/svg" xmlns:xlink="http://www.w3.org/1999/xlink" x="0px" y="0px" width="141.602px" height="154.395px" viewBox="0 0 141.602 154.395" enable-background="new 0 0 141.602 154.395" xml:space="preserve">
<path d="M87.305,154.395c0-28.387-8.398-42.578-25.195-42.578C20.703,111.817,0,90.884,0,49.023C0,16.342,13.833,0,41.504,0  c11.392,0,19.531,6.186,24.414,18.555C72.103,6.445,83.496,0.261,100.098,0c27.669,0,41.504,13.999,41.504,41.992  c0,27.995-13.835,41.993-41.504,41.993c-27.93,0-41.765-13.998-41.504-41.993c0-22.461-5.698-33.691-17.09-33.691  c-11.394,0-17.09,13.706-17.09,41.113c-0.065,36.783,12.5,55.176,37.695,55.176c32.617,0,49.446,16.602,50.488,49.805H87.305z   M117.188,41.992c0-22.461-5.697-33.691-17.09-33.691c-11.133-0.391-16.83,10.84-17.09,33.691  c0.586,22.526,6.282,33.757,17.09,33.691C111.49,75.684,117.188,64.453,117.188,41.992z"/>
</svg>