<?xml version="1.0" encoding="UTF-8"?>
<!-- Generator: Adobe Illustrator 13.0.2, SVG Export Plug-In . SVG Version: 6.00 Build 14948)  -->
<!DOCTYPE svg PUBLIC "-//W3C//DTD SVG 1.1//EN" "http://www.w3.org/Graphics/SVG/1.1/DTD/svg11.dtd">
<svg version="1.1" id="Layer_1" xmlns="http://www.w3.org/2000/svg" xmlns:xlink="http://www.w3.org/1999/xlink" x="0px" y="0px" width="83.008px" height="154.297px" viewBox="0 0 83.008 154.297" enable-background="new 0 0 83.008 154.297" xml:space="preserve">
<path d="M83.008,112.793c0,27.668-13.835,41.504-41.504,41.504c-27.67,0-41.472-13.348-41.406-40.039L0,83.985h24.414v30.566  c0,20.962,5.696,31.445,17.09,31.445c11.393,0,17.09-11.004,17.09-33.008V41.992c0-22.461-5.697-33.691-17.09-33.691  c-11.394,0-17.09,8.952-17.09,26.855v14.648H0V35.156C0,11.719,13.833,0,41.504,0c27.669,0,41.504,13.999,41.504,41.992V112.793z"/>
</svg>