<?xml version="1.0" encoding="UTF-8"?>
<!-- Generator: Adobe Illustrator 13.0.2, SVG Export Plug-In . SVG Version: 6.00 Build 14948)  -->
<!DOCTYPE svg PUBLIC "-//W3C//DTD SVG 1.1//EN" "http://www.w3.org/Graphics/SVG/1.1/DTD/svg11.dtd">
<svg version="1.1" id="Layer_1" xmlns="http://www.w3.org/2000/svg" xmlns:xlink="http://www.w3.org/1999/xlink" x="0px" y="0px" width="141.602px" height="154.297px" viewBox="0 0 141.602 154.297" enable-background="new 0 0 141.602 154.297" xml:space="preserve">
<path d="M87.891,154.297c-0.261-25.912-8.529-38.867-24.805-38.867C21.224,114.712,0.195,92.579,0,49.024  C0.195,16.602,14.029,0.261,41.504,0C55.24,0.261,65.071,6.055,70.996,17.383C75.357,6.055,83.951,0.391,96.777,0.391  c29.883-0.259,44.824,13.608,44.824,41.602c0,27.995-13.835,41.993-41.504,41.993v-8.204c11.588,0,17.285-11.263,17.09-33.789  c0-22.461-5.697-33.691-17.09-33.691c-11.394,0-17.09,8.952-17.09,26.856v19.531H58.594V35.157c0-17.904-5.697-26.856-17.09-26.856  c-11.394,0-17.09,13.574-17.09,40.724c0.13,39.453,12.793,59.179,37.988,59.179c35.352,0,53.613,15.363,54.785,46.094H87.891z"/>
</svg>