<?xml version="1.0" encoding="UTF-8"?>
<!-- Generator: Adobe Illustrator 13.0.2, SVG Export Plug-In . SVG Version: 6.00 Build 14948)  -->
<!DOCTYPE svg PUBLIC "-//W3C//DTD SVG 1.1//EN" "http://www.w3.org/Graphics/SVG/1.1/DTD/svg11.dtd">
<svg version="1.1" id="Layer_1" xmlns="http://www.w3.org/2000/svg" xmlns:xlink="http://www.w3.org/1999/xlink" x="0px" y="0px" width="83.008px" height="150.391px" viewBox="0 0 83.008 150.391" enable-background="new 0 0 83.008 150.391" xml:space="preserve">
<path d="M83.008,114.747c0,23.764-13.835,35.645-41.504,35.645c-27.67,0-41.504-9.83-41.504-29.492v-9.766h24.316v9.766  c0,14.193,5.729,21.258,17.188,21.191c11.393,0,17.09-9.213,17.09-27.637c0-11.979-3.516-17.969-10.547-17.969h-11.23v-9.57h11.23  c7.031-0.064,10.547-4.946,10.547-14.649c0-9.375-3.516-14.095-10.547-14.16h-11.23v-8.789h12.012  c6.51-0.064,9.766-5.435,9.766-16.113c0-9.18-7.895-13.899-23.682-14.16C19.124,18.784,11.23,12.436,11.23,0h27.832  c0,6.641,7.324,10.581,21.973,11.816c14.648,1.238,21.973,8.366,21.973,21.387c0,8.92-5.437,16.082-16.309,21.484  c10.872,3.648,16.309,9.506,16.309,17.578c0,8.334-5.6,14.811-16.797,19.434C77.408,96.453,83.008,104.135,83.008,114.747z"/>
</svg>