<?xml version="1.0" encoding="UTF-8"?>
<!-- Generator: Adobe Illustrator 13.0.2, SVG Export Plug-In . SVG Version: 6.00 Build 14948)  -->
<!DOCTYPE svg PUBLIC "-//W3C//DTD SVG 1.1//EN" "http://www.w3.org/Graphics/SVG/1.1/DTD/svg11.dtd">
<svg version="1.1" id="Layer_1" xmlns="http://www.w3.org/2000/svg" xmlns:xlink="http://www.w3.org/1999/xlink" x="0px" y="0px" width="87.109px" height="180.176px" viewBox="0 0 87.109 180.176" enable-background="new 0 0 87.109 180.176" xml:space="preserve">
<path d="M86.133,139.16c0,27.344-13.835,41.016-41.504,41.016c-27.67,0-41.504-13.672-41.504-41.016l-0.098-9.766h24.414v10.84  c0.064,21.094,5.794,31.641,17.188,31.641c11.393,0,17.057-10.906,16.992-32.715c0-15.105-4.541-26.953-13.623-35.547  s-14.6-21.451-16.553-38.575v-12.5L0,41.016v-17.48l31.445,12.5V0h24.316v43.261l31.348,14.258v17.188L55.762,59.766v5.469  c0,10.937,5.045,21.713,15.137,32.324C80.989,108.17,86.067,122.036,86.133,139.16z"/>
</svg>