<?xml version="1.0" encoding="UTF-8"?>
<!-- Generator: Adobe Illustrator 13.0.2, SVG Export Plug-In . SVG Version: 6.00 Build 14948)  -->
<!DOCTYPE svg PUBLIC "-//W3C//DTD SVG 1.1//EN" "http://www.w3.org/Graphics/SVG/1.1/DTD/svg11.dtd">
<svg version="1.1" id="Layer_1" xmlns="http://www.w3.org/2000/svg" xmlns:xlink="http://www.w3.org/1999/xlink" x="0px" y="0px" width="83.008px" height="154.297px" viewBox="0 0 83.008 154.297" enable-background="new 0 0 83.008 154.297" xml:space="preserve">
<path d="M82.91,114.258c0.064,26.691-13.737,40.039-41.406,40.039C13.833,154.102,0,140.43,0,113.282v-9.766h24.414v9.766  c0,21.809,5.696,32.715,17.09,32.715c11.393,0,17.122-10.581,17.188-31.738v-7.812C58.626,89.387,52.93,80.86,41.602,80.86H24.414  v-9.571h17.188c11.328,0,17.024-9.766,17.09-29.297C58.561,19.531,47.135,8.301,24.414,8.301V0  c39.062,0,58.594,13.999,58.594,41.992c0,19.922-9.604,31.186-28.809,33.789c19.205,3.516,28.775,13.736,28.711,30.665V114.258z"/>
</svg>