<?xml version="1.0" encoding="UTF-8"?>
<!-- Generator: Adobe Illustrator 13.0.2, SVG Export Plug-In . SVG Version: 6.00 Build 14948)  -->
<!DOCTYPE svg PUBLIC "-//W3C//DTD SVG 1.1//EN" "http://www.w3.org/Graphics/SVG/1.1/DTD/svg11.dtd">
<svg version="1.1" id="Layer_1" xmlns="http://www.w3.org/2000/svg" xmlns:xlink="http://www.w3.org/1999/xlink" x="0px" y="0px" width="82.911px" height="220.704px" viewBox="0 0 82.911 220.704" enable-background="new 0 0 82.911 220.704" xml:space="preserve">
<path d="M82.91,179.688c0.13,27.344-13.64,41.016-41.309,41.016C13.867,220.508,0,207.193,0,180.762l0.098-20.605h24.414  l-0.098,21.094c0.064,20.767,5.794,31.152,17.188,31.152c11.458,0,17.122-7.651,16.992-22.949V86.035  c0-7.942-5.664-11.719-16.992-11.328c-11.394,0-17.09,8.952-17.09,26.856l-0.098,9.766H0.098v-9.766  c0-23.307,13.834-35.025,41.504-35.157c7.942,0.261,13.606,2.019,16.992,5.273L58.496,0H82.91V179.688z"/>
</svg>