<?xml version="1.0" encoding="UTF-8"?>
<!-- Generator: Adobe Illustrator 13.0.2, SVG Export Plug-In . SVG Version: 6.00 Build 14948)  -->
<!DOCTYPE svg PUBLIC "-//W3C//DTD SVG 1.1//EN" "http://www.w3.org/Graphics/SVG/1.1/DTD/svg11.dtd">
<svg version="1.1" id="Layer_1" xmlns="http://www.w3.org/2000/svg" xmlns:xlink="http://www.w3.org/1999/xlink" x="0px" y="0px" width="200.195px" height="154.004px" viewBox="0 0 200.195 154.004" enable-background="new 0 0 200.195 154.004" xml:space="preserve">
<path d="M200.195,41.992c0,27.995-13.803,41.993-41.406,41.993v-8.204c11.328-0.064,16.992-11.392,16.992-33.984  c0-22.33-5.664-33.496-16.992-33.496c-11.394,0-17.123,11.23-17.188,33.691l0.098,16.016l-24.512-0.293V41.992  c0-22.461-5.697-33.691-17.09-33.691c-11.394,0-17.09,11.23-17.09,33.691L82.91,57.715l-24.316,0.293V41.992  c0-22.461-5.698-33.691-17.09-33.691c-11.394,0-17.09,13.51-17.09,40.527c0,36.458,21.158,54.688,63.477,54.688  c49.023,0,73.535,16.828,73.535,50.488h-26.758c0.13-27.605-15.463-41.18-46.777-40.723C29.297,113.282,0,91.861,0,49.023  C0,16.342,13.833,0,41.504,0c11.392,0,20.931,5.014,28.613,15.039C78.711,5.014,88.704,0,100.098,0  c11.393,0,21.256,5.014,29.59,15.039c7.942-10.025,17.578-14.908,28.906-14.648C186.328,0.131,200.195,13.999,200.195,41.992z"/>
</svg>