<?xml version="1.0" encoding="UTF-8"?>
<!-- Generator: Adobe Illustrator 13.0.2, SVG Export Plug-In . SVG Version: 6.00 Build 14948)  -->
<!DOCTYPE svg PUBLIC "-//W3C//DTD SVG 1.1//EN" "http://www.w3.org/Graphics/SVG/1.1/DTD/svg11.dtd">
<svg version="1.1" id="Layer_1" xmlns="http://www.w3.org/2000/svg" xmlns:xlink="http://www.w3.org/1999/xlink" x="0px" y="0px" width="83.008px" height="150.391px" viewBox="0 0 83.008 150.391" enable-background="new 0 0 83.008 150.391" xml:space="preserve">
<path d="M83.008,108.399c0,27.994-13.835,41.992-41.504,41.992C13.833,150.391,0,136.588,0,108.985  C0,80.86,13.833,66.667,41.504,66.406c7.096,0.261,12.76,1.823,16.992,4.688V41.016c0-21.81-5.664-32.715-16.992-32.715  c-11.394,0-17.155,11.003-17.285,33.008H0C0,13.77,13.833,0,41.504,0c27.669,0,41.504,13.64,41.504,40.918V108.399z M58.496,108.399  c0-22.852-5.664-34.083-16.992-33.692c-11.394,0-17.09,11.231-17.09,33.692c-0.065,22.525,5.63,33.758,17.09,33.691  C52.832,142.157,58.496,130.924,58.496,108.399z"/>
</svg>