<?xml version="1.0" encoding="UTF-8" standalone="no"?>
<!DOCTYPE svg PUBLIC "-//W3C//DTD SVG 20010904//EN" "http://www.w3.org/TR/2001/REC-SVG-20010904/DTD/svg10.dtd">
<svg version="1.0" xmlns="http://www.w3.org/2000/svg" width="142.000000pt" height="84.000000pt" viewBox="0 0 142.000000 84.000000" preserveAspectRatio="xMidYMid meet">
<metadata>
Created by potrace 1.12, written by Peter Selinger 2001-2015
</metadata>
<g transform="translate(0.000000,84.000000) scale(0.100000,-0.100000)" fill="#000000" stroke="none">
<path d="M290 826 c-80 -18 -123 -39 -174 -86 -84 -78 -124 -208 -113 -369 8 -116 38 -198 93 -260 64 -71 135 -104 240 -109 l84 -5 0 36 c0 33 -3 37 -38 47 -92 24 -132 126 -132 338 0 235 53 337 174 336 66 -1 112 -26 141 -74 18 -31 20 -56 23 -212 l4 -178 123 0 123 0 4 184 c3 168 5 187 24 212 35 47 70 67 126 72 67 5 111 -22 144 -88 77 -154 49 -556 -40 -590 -21 -8 -26 -16 -26 -45 l0 -35 58 0 c81 0 171 45 216 107 60 83 71 129 71 304 l0 156 -40 79 c-46 89 -90 130 -182 164 -82 31 -211 38 -287 16 -68 -20 -143 -84 -171 -146 l-18 -39 -31 51 c-75 125 -219 174 -396 134z"/>
</g>
</svg>