<?xml version="1.0" encoding="UTF-8" standalone="no"?>
<!DOCTYPE svg PUBLIC "-//W3C//DTD SVG 20010904//EN" "http://www.w3.org/TR/2001/REC-SVG-20010904/DTD/svg10.dtd">
<svg version="1.0" xmlns="http://www.w3.org/2000/svg" width="83.000000pt" height="150.000000pt" viewBox="0 0 83.000000 150.000000" preserveAspectRatio="xMidYMid meet">
<metadata>
Created by potrace 1.12, written by Peter Selinger 2001-2015
</metadata>
<g transform="translate(0.000000,150.000000) scale(0.100000,-0.100000)" fill="#000000" stroke="none">
<path d="M0 1476 c0 -35 20 -87 48 -125 37 -50 113 -80 229 -92 171 -17 232 -46 277 -130 25 -45 29 -62 29 -133 -1 -184 -57 -246 -220 -246 l-63 0 0 -39 0 -38 83 -5 c50 -3 95 -11 114 -21 68 -36 98 -154 82 -324 -15 -163 -69 -243 -162 -243 -109 0 -159 88 -173 303 l-6 97 -120 0 -121 0 6 -97 c11 -209 96 -326 267 -369 90 -23 263 -15 341 15 149 57 229 211 216 416 -8 135 -66 222 -166 247 l-44 11 59 27 c96 43 141 112 151 231 7 82 -9 154 -49 213 -42 64 -121 101 -257 121 -168 25 -247 72 -271 163 l-11 42 -119 0 c-119 0 -120 0 -120 -24z"/>
</g>
</svg>