<?xml version="1.0" encoding="UTF-8"?>
<!-- Generator: Adobe Illustrator 13.0.2, SVG Export Plug-In . SVG Version: 6.00 Build 14948)  -->
<!DOCTYPE svg PUBLIC "-//W3C//DTD SVG 1.1//EN" "http://www.w3.org/Graphics/SVG/1.1/DTD/svg11.dtd">
<svg version="1.1" id="Layer_1" xmlns="http://www.w3.org/2000/svg" xmlns:xlink="http://www.w3.org/1999/xlink" x="0px" y="0px" width="141.602px" height="154.297px" viewBox="0 0 141.602 154.297" enable-background="new 0 0 141.602 154.297" xml:space="preserve">
<path d="M141.602,113.282c0,27.344-13.835,41.016-41.504,41.016c-27.67,0-41.504-13.672-41.504-41.016v-9.766h24.414v9.766  c0,21.809,5.696,32.715,17.09,32.715c11.393,0,17.09-10.906,17.09-32.715v-5.664c0-15.757-4.135-23.633-12.402-23.633h-4.688v-8.301  h4.883c8.138,0,12.207-11.23,12.207-33.691c0-22.461-5.6-33.496-16.797-33.105C88.802,8.496,83.008,19.531,83.008,41.992  c0,27.995-13.835,41.993-41.504,41.993C13.834,83.985,0,69.987,0,41.992C0,13.999,13.834,0,41.504,0  c19.01,0,31.575,5.534,37.695,16.602C83.365,5.534,90.332,0,100.098,0c27.669,0,41.504,13.999,41.504,41.992  c0,22.461-8.139,35.092-24.414,37.891c16.275,2.734,24.414,11.978,24.414,27.734V113.282z M58.594,41.992  c0-22.461-5.697-33.691-17.09-33.691c-11.394,0-17.09,11.23-17.09,33.691c0,22.526,5.696,33.758,17.09,33.691  C52.896,75.684,58.594,64.454,58.594,41.992z"/>
</svg>