<?xml version="1.0" encoding="UTF-8"?>
<!-- Generator: Adobe Illustrator 13.0.2, SVG Export Plug-In . SVG Version: 6.00 Build 14948)  -->
<!DOCTYPE svg PUBLIC "-//W3C//DTD SVG 1.1//EN" "http://www.w3.org/Graphics/SVG/1.1/DTD/svg11.dtd">
<svg version="1.1" id="Layer_1" xmlns="http://www.w3.org/2000/svg" xmlns:xlink="http://www.w3.org/1999/xlink" x="0px" y="0px" width="83.008px" height="154.297px" viewBox="0 0 83.008 154.297" enable-background="new 0 0 83.008 154.297" xml:space="preserve">
<path d="M83.008,113.282c0,27.344-13.835,41.016-41.504,41.016C13.834,154.297,0,140.625,0,113.282v-9.766h24.414v9.766  c0,21.809,5.696,32.715,17.09,32.715c11.393,0,17.09-10.906,17.09-32.715V78.125c-3.906,3.906-9.604,5.859-17.09,5.859  C13.899,83.985,0.064,69.987,0,41.992V0h24.414v41.992c0,22.526,5.696,33.758,17.09,33.691c11.393-0.977,17.09-3.548,17.09-7.715V0  h24.414V113.282z"/>
</svg>