<?xml version="1.0" encoding="UTF-8"?>
<!-- Generator: Adobe Illustrator 13.0.2, SVG Export Plug-In . SVG Version: 6.00 Build 14948)  -->
<!DOCTYPE svg PUBLIC "-//W3C//DTD SVG 1.1//EN" "http://www.w3.org/Graphics/SVG/1.1/DTD/svg11.dtd">
<svg version="1.1" id="Layer_1" xmlns="http://www.w3.org/2000/svg" xmlns:xlink="http://www.w3.org/1999/xlink" x="0px" y="0px" width="141.701px" height="150.391px" viewBox="0 0 141.701 150.391" enable-background="new 0 0 141.701 150.391" xml:space="preserve">
<path d="M141.699,108.399c0.195,27.994-13.672,41.992-41.602,41.992v-8.301c11.523,0.066,17.285-11.166,17.285-33.691  c-0.065-22.461-5.795-33.692-17.188-33.692c-11.394,0-17.09,11.231-17.09,33.692v12.695H58.789v-12.695  c-0.065-22.461-5.795-33.692-17.188-33.692c-11.394,0-17.09,11.231-17.09,33.692c0,22.525,5.696,33.758,17.09,33.691v8.301  C13.867,150.391,0,136.393,0,108.399c0-19.986,8.169-32.584,24.512-37.793C8.235,66.765,0.098,57.553,0.098,42.969  c-0.065-19.531,13.77-29.297,41.504-29.297h41.406c16.274,0,24.414-4.556,24.414-13.672h29.297  c-0.977,15.756-18.881,23.569-53.711,23.438H41.602c-11.459,0-17.188,6.511-17.188,19.531c0.064,15.886,5.794,23.698,17.188,23.438  c14.974,0.261,24.805,7.422,29.492,21.485c3.774-14.062,13.477-21.224,29.102-21.485C127.864,66.406,141.699,80.405,141.699,108.399  z"/>
</svg>