<?xml version="1.0" encoding="UTF-8"?>
<!-- Generator: Adobe Illustrator 13.0.2, SVG Export Plug-In . SVG Version: 6.00 Build 14948)  -->
<!DOCTYPE svg PUBLIC "-//W3C//DTD SVG 1.1//EN" "http://www.w3.org/Graphics/SVG/1.1/DTD/svg11.dtd">
<svg version="1.1" id="Layer_1" xmlns="http://www.w3.org/2000/svg" xmlns:xlink="http://www.w3.org/1999/xlink" x="0px" y="0px" width="92.773px" height="150.391px" viewBox="0 0 92.773 150.391" enable-background="new 0 0 92.773 150.391" xml:space="preserve">
<path d="M92.773,108.692c0,27.799-13.835,41.699-41.504,41.699c-27.734,0-41.602-13.736-41.602-41.211  c0-28.516,13.867-42.774,41.602-42.774c8.984,0.261,14.681,2.019,17.09,5.273V29.98c0-14.453-4.395-21.68-13.184-21.68  c-10.092,0-15.137,8.301-15.137,24.902v9.766h-15.43v-9.766c-0.131-6.509-5.078-9.766-14.844-9.766H0V0h9.766  c9.896,0,17.057,5.632,21.484,16.895C37.109,5.632,46.224,0,58.594,0c22.786,0,34.18,10.156,34.18,30.469V108.692z M68.359,108.399  c0-22.852-5.697-34.083-17.09-33.692c-11.394,0-17.09,11.329-17.09,33.985c-0.131,22.33,5.566,33.465,17.09,33.398  C62.662,142.157,68.359,130.924,68.359,108.399z"/>
</svg>