<?xml version="1.0" encoding="UTF-8"?>
<!-- Generator: Adobe Illustrator 13.0.2, SVG Export Plug-In . SVG Version: 6.00 Build 14948)  -->
<!DOCTYPE svg PUBLIC "-//W3C//DTD SVG 1.1//EN" "http://www.w3.org/Graphics/SVG/1.1/DTD/svg11.dtd">
<svg version="1.1" id="Layer_1" xmlns="http://www.w3.org/2000/svg" xmlns:xlink="http://www.w3.org/1999/xlink" x="0px" y="0px" width="133.693px" height="184.278px" viewBox="0 0 133.693 184.278" enable-background="new 0 0 133.693 184.278" xml:space="preserve">
<path d="M0.001,105.665c0-50.26,20.735-75.423,62.207-75.489L51.466,0H82.13L71.388,30.372c41.536-0.326,62.305,24.74,62.305,75.195  c0,52.473-21.875,78.711-65.625,78.711C22.495,184.016-0.194,157.813,0.001,105.665z M24.123,105.567  c0.13,47.07,14.681,70.508,43.652,70.312c27.669,0,41.504-23.406,41.504-70.215c0-44.986-12.631-67.481-37.891-67.481L82.13,87.012  H51.466l10.742-48.828C36.948,38.184,24.252,60.645,24.123,105.567z"/>
</svg>