<?xml version="1.0" encoding="UTF-8"?>
<!-- Generator: Adobe Illustrator 13.0.2, SVG Export Plug-In . SVG Version: 6.00 Build 14948)  -->
<!DOCTYPE svg PUBLIC "-//W3C//DTD SVG 1.1//EN" "http://www.w3.org/Graphics/SVG/1.1/DTD/svg11.dtd">
<svg version="1.1" id="Layer_1" xmlns="http://www.w3.org/2000/svg" xmlns:xlink="http://www.w3.org/1999/xlink" x="0px" y="0px" width="141.603px" height="83.985px" viewBox="0 0 141.603 83.985" enable-background="new 0 0 141.603 83.985" xml:space="preserve">
<path d="M141.602,41.992c0.13,27.995-13.705,41.993-41.504,41.993v-8.301c11.393,0.064,17.09-11.166,17.09-33.692  c0-22.461-5.697-33.691-17.09-33.691c-11.394,0-17.09,11.23-17.09,33.691c0,27.995-13.413,41.993-40.234,41.993  C14.258,83.985,0,69.987,0,41.992C0,13.999,13.833,0,41.504,0c19.336,0,31.9,5.859,37.695,17.578C83.17,5.859,90.137,0,100.098,0  C127.896,0.261,141.731,14.258,141.602,41.992z M58.594,41.992c0-22.461-5.698-33.691-17.09-33.691  c-11.459,0-17.188,11.23-17.188,33.691c0,22.526,5.728,33.756,17.188,33.692C52.896,75.749,58.594,64.518,58.594,41.992z"/>
</svg>