<?xml version="1.0" encoding="UTF-8"?>
<!-- Generator: Adobe Illustrator 13.0.2, SVG Export Plug-In . SVG Version: 6.00 Build 14948)  -->
<!DOCTYPE svg PUBLIC "-//W3C//DTD SVG 1.1//EN" "http://www.w3.org/Graphics/SVG/1.1/DTD/svg11.dtd">
<svg version="1.1" id="Layer_1" xmlns="http://www.w3.org/2000/svg" xmlns:xlink="http://www.w3.org/1999/xlink" x="0px" y="0px" width="90.625px" height="220.411px" viewBox="0 0 90.625 220.411" enable-background="new 0 0 90.625 220.411" xml:space="preserve">
<path d="M90.625,21.484h-12.5c-7.097,0-10.449,3.874-10.059,11.621l0.195,9.863H52.734v-9.863c0-16.536-4.199-24.805-12.598-24.805  c-10.482,0-15.756,5.502-15.82,16.504l0.098,45.801c3.516-2.539,9.212-3.938,17.09-4.199c27.669,0,41.504,11.719,41.504,35.157  c0,19.531-6.918,35.807-20.752,48.828c-13.835,13.02-23.129,36.36-27.881,70.02H12.5l2.637-19.629  c1.562-14.062-0.57-31.641-6.396-52.734C2.913,126.954,0,106.968,0,88.086v-54.98C0,11.035,11.783,0,35.352,0  c11.588,0,20.605,3.972,27.051,11.914C65.332,3.972,70.572,0,78.125,0h12.207L90.625,21.484z M58.398,101.563  c0-17.904-5.632-26.856-16.895-26.856c-10.287,0-15.983,2.441-17.09,7.324c-0.065,20.964,1.025,38.901,3.271,53.809  c2.246,14.907,2.295,31.934,0.146,51.074c4.752-21.941,11.035-38.395,18.848-49.365S58.398,114.584,58.398,101.563z"/>
</svg>