<?xml version="1.0" encoding="UTF-8"?>
<!-- Generator: Adobe Illustrator 13.0.2, SVG Export Plug-In . SVG Version: 6.00 Build 14948)  -->
<!DOCTYPE svg PUBLIC "-//W3C//DTD SVG 1.1//EN" "http://www.w3.org/Graphics/SVG/1.1/DTD/svg11.dtd">
<svg version="1.1" id="Layer_1" xmlns="http://www.w3.org/2000/svg" xmlns:xlink="http://www.w3.org/1999/xlink" x="0px" y="0px" width="106.055px" height="154.005px" viewBox="0 0 106.055 154.005" enable-background="new 0 0 106.055 154.005" xml:space="preserve">
<path d="M106.055,44.922c0,15.756-7.52,25.781-22.559,30.078c15.039,4.429,22.559,13.931,22.559,28.516  c0,33.853-16.928,50.684-50.781,50.488C18.424,154.004,0,137.173,0,103.516V54.688C0,35.157,3.58,16.929,10.742,0h24.316  c-7.162,16.929-10.742,35.157-10.742,54.688l0.098,48.828c-0.065,28.516,10.286,42.707,31.055,42.578  c17.447-0.065,26.172-14.258,26.172-42.578c0-15.43-5.209-23.242-15.625-23.438h-11.23V69.922h12.109  c9.83,0.131,14.746-8.204,14.746-25c0-9.635-2.051-16.585-6.152-20.85C71.387,19.81,69.336,11.784,69.336,0h24.512  c-7.943,10.417-7.895,17.514,0.146,21.29C102.034,25.065,106.055,32.944,106.055,44.922z"/>
</svg>