<?xml version="1.0" encoding="UTF-8" standalone="no"?>
<!DOCTYPE svg PUBLIC "-//W3C//DTD SVG 20010904//EN" "http://www.w3.org/TR/2001/REC-SVG-20010904/DTD/svg10.dtd">
<svg version="1.0" xmlns="http://www.w3.org/2000/svg" width="93.000000pt" height="154.000000pt" viewBox="0 0 93.000000 154.000000" preserveAspectRatio="xMidYMid meet">
<metadata>
Created by potrace 1.12, written by Peter Selinger 2001-2015
</metadata>
<g transform="translate(0.000000,154.000000) scale(0.100000,-0.100000)" fill="#000000" stroke="none">
<path d="M0 1431 l0 -111 66 0 c81 0 126 -20 156 -68 18 -30 23 -54 26 -149 l5 -113 72 0 72 0 5 178 c4 138 8 184 21 209 53 101 180 106 226 10 35 -74 41 -157 41 -618 0 -456 -5 -530 -40 -599 -41 -81 -119 -111 -193 -75 -79 37 -107 127 -107 348 l0 157 -126 0 -126 0 4 -162 c5 -199 22 -253 102 -334 80 -79 138 -98 306 -99 79 0 151 5 175 12 71 22 148 75 182 127 62 92 63 100 63 632 0 456 -1 485 -20 548 -28 88 -72 144 -145 181 -53 27 -68 30 -154 30 -114 0 -176 -24 -220 -86 l-28 -38 -34 35 c-58 60 -129 88 -236 92 l-93 4 0 -111z"/>
</g>
</svg>