<?xml version="1.0" encoding="UTF-8"?>
<!-- Generator: Adobe Illustrator 13.0.2, SVG Export Plug-In . SVG Version: 6.00 Build 14948)  -->
<!DOCTYPE svg PUBLIC "-//W3C//DTD SVG 1.1//EN" "http://www.w3.org/Graphics/SVG/1.1/DTD/svg11.dtd">
<svg version="1.1" id="Layer_1" xmlns="http://www.w3.org/2000/svg" xmlns:xlink="http://www.w3.org/1999/xlink" x="0px" y="0px" width="83.07px" height="154.297px" viewBox="0 0 83.07 154.297" enable-background="new 0 0 83.07 154.297" xml:space="preserve">
<path d="M83.008,118.848c0,23.633-13.835,35.449-41.504,35.449C13.833,154.102,0,140.723,0,114.161V93.75h24.414l-0.098,20.508  c0.064,21.157,5.794,31.738,17.188,31.738c11.393,0,17.09-9.246,17.09-27.734v-11.816c0.064-18.882-4.851-28.385-14.746-28.516  H33.789V67.383h10.059c9.896,0,14.811-10.742,14.746-32.227c0-17.903-5.697-26.855-17.09-26.855c-11.394,0-17.09,8.952-17.09,26.855  v15.332H0V35.156C0,11.719,13.833,0,41.504,0c27.669,0,41.504,11.719,41.504,35.156c0.911,21.484-8.203,33.92-27.344,37.305  c19.141,3.516,28.255,14.844,27.344,33.985V118.848z"/>
</svg>