<?xml version="1.0" encoding="UTF-8"?>
<!-- Generator: Adobe Illustrator 13.0.2, SVG Export Plug-In . SVG Version: 6.00 Build 14948)  -->
<!DOCTYPE svg PUBLIC "-//W3C//DTD SVG 1.1//EN" "http://www.w3.org/Graphics/SVG/1.1/DTD/svg11.dtd">
<svg version="1.1" id="Layer_1" xmlns="http://www.w3.org/2000/svg" xmlns:xlink="http://www.w3.org/1999/xlink" x="0px" y="0px" width="92.773px" height="150.391px" viewBox="0 0 92.773 150.391" enable-background="new 0 0 92.773 150.391" xml:space="preserve">
<path d="M92.773,108.399c0,27.994-13.835,41.992-41.504,41.992c-27.67,0-41.504-13.998-41.504-41.992  c0-22.461,10.123-35.58,30.371-39.356C13.379,67.546,0,55.6,0,33.203C0,11.069,13.833,0,41.504,0  c27.604,0,41.438,11.069,41.504,33.203c0,22.136-10.385,33.301-31.152,33.496C79.134,66.504,92.773,80.405,92.773,108.399z   M58.594,33.984c0-17.122-5.697-25.684-17.09-25.684c-11.394,0-17.09,8.301-17.09,24.902c0,19.531,5.696,29.297,17.09,29.297  C52.896,62.5,58.594,52.995,58.594,33.984z M68.359,108.399c0-22.461-5.697-33.692-17.09-33.692  c-11.394,0-17.09,11.231-17.09,33.692s5.696,33.691,17.09,33.691C62.662,142.09,68.359,130.86,68.359,108.399z"/>
</svg>